<svg xmlns="http://www.w3.org/2000/svg" x="0px" y="0px"
width="64" height="64"
viewBox="0 0 172 172"
style=" fill:#4a90e2;"><g fill="none" fill-rule="nonzero" stroke="none" stroke-width="1" stroke-linecap="butt" stroke-linejoin="miter" stroke-miterlimit="10" stroke-dasharray="" stroke-dashoffset="0" font-family="none" font-weight="none" font-size="none" text-anchor="none" style="mix-blend-mode: normal"><path d="M0,172v-172h172v172z" fill="none"></path><g fill="#e74c3c"><path d="M43,163.9375h86c9.675,0 17.46875,-7.79375 17.46875,-17.46875v-107.5c0,-8.19688 -3.225,-15.99062 -9.00313,-21.90312c-5.77812,-5.9125 -13.70625,-9.00313 -21.90312,-9.00313h-72.5625c-9.675,0 -17.46875,7.79375 -17.46875,17.46875v120.9375c0,9.675 7.79375,17.46875 17.46875,17.46875zM115.69688,123.625h-59.125c-2.28438,0 -4.03125,-1.74688 -4.03125,-4.03125c0,-2.28437 1.74687,-4.03125 4.03125,-4.03125h59.125c2.28438,0 4.03125,1.74688 4.03125,4.03125c0,2.28437 -1.74687,4.03125 -4.03125,4.03125zM131.6875,22.84375c3.35938,3.35938 5.50938,7.525 6.31563,12.09375h-9.00313c-5.24063,0 -9.40625,-4.16563 -9.40625,-9.40625v-9.00313c4.56875,0.80625 8.73438,2.95625 12.09375,6.31563zM56.30313,75.25h59.125c2.28437,0 4.03125,1.74688 4.03125,4.03125c0,2.28437 -1.74688,4.03125 -4.03125,4.03125h-59.125c-2.28438,0 -4.03125,-1.74688 -4.03125,-4.03125c0,-2.28437 1.74687,-4.03125 4.03125,-4.03125zM56.30313,95.40625h59.125c2.28437,0 4.03125,1.74688 4.03125,4.03125c0,2.28437 -1.74688,4.03125 -4.03125,4.03125h-59.125c-2.28438,0 -4.03125,-1.74688 -4.03125,-4.03125c0,-2.28437 1.74687,-4.03125 4.03125,-4.03125z"></path></g></g></svg>